<svg width="120" height="120" viewBox="0 0 80 80" xmlns="http://www.w3.org/2000/svg">
  <defs>
    <style>
      .cyl { fill: #4B5320; }
      .node { fill: #6B8E23; }
      .line { stroke: #A9BA9D; stroke-width: 2; }
      .arrow { stroke: #A9BA9D; stroke-width: 2; fill: none; marker-end: url(#arrow); }
    </style>
    <marker id="arrow" markerWidth="6" markerHeight="6" refX="6" refY="3" orient="auto">
      <path d="M0,0 L6,3 L0,6 Z" fill="#A9BA9D"/>
    </marker>
  </defs>
  <!-- Cylinder -->
  <ellipse cx="24" cy="20" rx="16" ry="8" class="cyl"/>
  <rect x="8" y="20" width="32" height="24" class="cyl"/>
  <ellipse cx="24" cy="44" rx="16" ry="8" class="cyl"/>
  <!-- Database curves: top at y=12, three interior at 22,32,42, bottom flipped at 52 -->
  <path d="M8,12 A16,4 0 0,1 40,12" stroke="#fff" stroke-width="2" fill="none"/>
  <path d="M8,22 A16,4 0 0,1 40,22" stroke="#fff" stroke-width="2" fill="none"/>
  <path d="M8,32 A16,4 0 0,1 40,32" stroke="#fff" stroke-width="2" fill="none"/>
  <path d="M8,42 A16,4 0 0,1 40,42" stroke="#fff" stroke-width="2" fill="none"/>
  <path d="M8,52 A16,4 0 0,0 40,52" stroke="#fff" stroke-width="2" fill="none"/>
  <!-- Neural nodes -->
  <circle cx="60" cy="20" r="4" class="node"/>
  <circle cx="68" cy="32" r="4" class="node"/>
  <circle cx="60" cy="44" r="4" class="node"/>
  <!-- Connections -->
  <line x1="40" y1="24" x2="56" y2="20" class="line"/>
  <line x1="40" y1="32" x2="64" y2="32" class="line"/>
  <line x1="40" y1="44" x2="56" y2="44" class="line"/>
  <!-- Input arrow -->
  <path d="M56,32 L24,32" class="arrow"/>
</svg>